<svg width="512" height="512" viewBox="0 0 512 512" fill="none" xmlns="http://www.w3.org/2000/svg">
<rect x="5" y="5" width="502" height="502" rx="46" fill="#EEEDF4"/>
<g clip-path="url(#clip0)">
<path d="M366.834 224.334H145.167C132.569 224.334 120.488 229.338 111.58 238.246C102.672 247.154 97.6671 259.236 97.6671 271.834V398.5C97.6671 411.098 102.672 423.18 111.58 432.088C120.488 440.996 132.569 446 145.167 446H366.834C379.432 446 391.513 440.996 400.421 432.088C409.329 423.18 414.334 411.098 414.334 398.5V271.834C414.334 259.236 409.329 247.154 400.421 238.246C391.513 229.338 379.432 224.334 366.834 224.334ZM256 366.834C249.737 366.834 243.615 364.976 238.407 361.497C233.2 358.017 229.141 353.072 226.744 347.285C224.347 341.499 223.72 335.132 224.942 328.989C226.164 322.846 229.18 317.204 233.609 312.775C238.037 308.347 243.68 305.331 249.823 304.109C255.965 302.887 262.332 303.514 268.119 305.911C273.905 308.307 278.851 312.366 282.33 317.574C285.81 322.781 287.667 328.904 287.667 335.167C287.667 343.565 284.331 351.62 278.392 357.559C272.454 363.497 264.399 366.834 256 366.834Z" fill="#1F72FE"/>
<path d="M351 192.667H319.333V161C319.511 144.393 313.089 128.394 301.477 116.519C289.866 104.644 274.016 97.8631 257.409 97.6668H256.744C248.47 97.5221 240.248 99.0094 232.549 102.044C224.85 105.078 217.824 109.6 211.873 115.351C205.922 121.101 201.163 127.969 197.868 135.56C194.572 143.151 192.805 151.317 192.667 159.591V192.667H161V159.417C161.254 134.586 171.284 110.855 188.916 93.3686C206.547 75.8821 230.36 66.0488 255.193 66.0002H256.158C268.646 65.977 281.015 68.4249 292.553 73.2028C304.091 77.9806 314.57 84.9941 323.385 93.8391C332.201 102.684 339.179 113.186 343.919 124.74C348.658 136.293 351.065 148.671 351 161.158V192.667Z" fill="#1F72FE"/>
</g>
<rect x="5" y="5" width="502" height="502" rx="46" stroke="#1F72FE" stroke-width="10"/>
<defs>
<clipPath id="clip0">
<rect width="380" height="380" fill="white" transform="translate(66 66)"/>
</clipPath>
</defs>
</svg>
